<svg width="512" height="512" viewBox="0 0 512 512" fill="none" xmlns="http://www.w3.org/2000/svg" role="img" aria-label="Tasqyn icon">
  <defs>
    <linearGradient id="bg" x1="0" y1="0" x2="1" y2="1">
      <stop offset="0" stop-color="#0ea5e9"/>
      <stop offset="1" stop-color="#1e3a8a"/>
    </linearGradient>
    <linearGradient id="wave" x1="0" y1="0" x2="0" y2="1">
      <stop offset="0" stop-color="#f0f9ff"/>
      <stop offset="1" stop-color="#7dd3fc"/>
    </linearGradient>
  </defs>
  <rect width="512" height="512" rx="120" fill="url(#bg)"/>
  <path d="M256 96 L392 142 V270 C392 352 332 398 256 430 C180 398 120 352 120 270 V142 Z"
        fill="#0b1f3a" opacity="0.30"/>
  <path d="M150 320 q40 -52 80 0 q40 52 80 0 q26 -34 52 -8" stroke="url(#wave)" stroke-width="30"
        stroke-linecap="round" fill="none"/>
  <path d="M150 252 q40 -52 80 0 q40 52 80 0 q26 -34 52 -8" stroke="#bae6fd" stroke-width="26"
        stroke-linecap="round" fill="none" opacity="0.85"/>
  <path d="M168 186 q34 -44 68 0 q34 44 68 0" stroke="#f0f9ff" stroke-width="22"
        stroke-linecap="round" fill="none" opacity="0.7"/>
</svg>
